<svg width="167" height="25" viewBox="0 0 167 25" fill="none" xmlns="http://www.w3.org/2000/svg">
<path d="M0.0227273 0.727272H6.09091L12.5 16.3636H12.7727L19.1818 0.727272H25.25V24H20.4773V8.85227H20.2841L14.2614 23.8864H11.0114L4.98864 8.79545H4.79545V24H0.0227273V0.727272ZM29.304 24V0.727272H38.6222C40.3343 0.727272 41.7623 0.98106 42.9062 1.48864C44.0502 1.99621 44.91 2.70076 45.4858 3.60227C46.0616 4.49621 46.3494 5.52652 46.3494 6.69318C46.3494 7.60227 46.1676 8.40152 45.804 9.09091C45.4403 9.77273 44.9403 10.3333 44.304 10.7727C43.6752 11.2045 42.9555 11.5114 42.1449 11.6932V11.9205C43.0313 11.9583 43.8608 12.2083 44.6335 12.6705C45.4138 13.1326 46.0464 13.7803 46.5312 14.6136C47.0161 15.4394 47.2585 16.4242 47.2585 17.5682C47.2585 18.803 46.9517 19.9053 46.3381 20.875C45.732 21.8371 44.8343 22.5985 43.6449 23.1591C42.4555 23.7197 40.9896 24 39.2472 24H29.304ZM34.2244 19.9773H38.2358C39.607 19.9773 40.607 19.7159 41.2358 19.1932C41.8646 18.6629 42.179 17.9583 42.179 17.0795C42.179 16.4356 42.0237 15.8674 41.7131 15.375C41.4025 14.8826 40.9593 14.4962 40.3835 14.2159C39.8153 13.9356 39.1373 13.7955 38.3494 13.7955H34.2244V19.9773ZM34.2244 10.4659H37.8722C38.5464 10.4659 39.1449 10.3485 39.6676 10.1136C40.1979 9.87121 40.6146 9.5303 40.9176 9.09091C41.2282 8.65152 41.3835 8.125 41.3835 7.51136C41.3835 6.67045 41.0843 5.99242 40.4858 5.47727C39.8949 4.96212 39.054 4.70454 37.9631 4.70454H34.2244V10.4659Z" fill="#FF5D03"/>
<path d="M51.5284 24V0.727272H65.0284V2.63636H53.6534V11.3977H64.3125V13.3068H53.6534V22.0909H65.2557V24H51.5284ZM83.6193 6.54545L77.2443 24H75.0852L68.7102 6.54545H70.9034L76.0852 21.3295H76.2443L81.4261 6.54545H83.6193ZM94.0085 24.3636C92.3797 24.3636 90.9706 23.9848 89.7812 23.2273C88.5919 22.4621 87.6714 21.4053 87.0199 20.0568C86.3759 18.7008 86.054 17.1402 86.054 15.375C86.054 13.6174 86.3759 12.0568 87.0199 10.6932C87.6714 9.32197 88.5691 8.25 89.7131 7.47727C90.8646 6.69697 92.1941 6.30682 93.7017 6.30682C94.6487 6.30682 95.5616 6.48106 96.4403 6.82954C97.3191 7.17045 98.107 7.69697 98.804 8.40909C99.5085 9.11364 100.065 10.0038 100.474 11.0795C100.884 12.1477 101.088 13.4129 101.088 14.875V15.875H87.4517V14.0909H99.0199C99.0199 12.9697 98.7926 11.9621 98.3381 11.0682C97.8911 10.1667 97.2661 9.45455 96.4631 8.93182C95.6676 8.40909 94.7472 8.14773 93.7017 8.14773C92.5956 8.14773 91.6222 8.44318 90.7812 9.03409C89.9403 9.625 89.2813 10.4053 88.804 11.375C88.3343 12.3447 88.0956 13.4053 88.0881 14.5568V15.625C88.0881 17.0114 88.3267 18.2235 88.804 19.2614C89.2888 20.2917 89.9744 21.0909 90.8608 21.6591C91.7472 22.2273 92.7964 22.5114 94.0085 22.5114C94.8343 22.5114 95.5578 22.3826 96.179 22.125C96.8078 21.8674 97.3343 21.5227 97.7585 21.0909C98.1903 20.6515 98.5161 20.1705 98.7358 19.6477L100.656 20.2727C100.391 21.0076 99.9555 21.6856 99.3494 22.3068C98.7509 22.928 98.0009 23.428 97.0994 23.8068C96.2055 24.178 95.1752 24.3636 94.0085 24.3636ZM107.568 13.0909V24H105.545V6.54545H107.511V9.28409H107.693C108.102 8.39015 108.739 7.67424 109.602 7.13636C110.473 6.59091 111.549 6.31818 112.83 6.31818C114.004 6.31818 115.034 6.56439 115.92 7.05682C116.814 7.54167 117.508 8.25758 118 9.20455C118.5 10.1515 118.75 11.3144 118.75 12.6932V24H116.727V12.8182C116.727 11.3864 116.326 10.2538 115.523 9.42045C114.727 8.58712 113.659 8.17045 112.318 8.17045C111.402 8.17045 110.587 8.36742 109.875 8.76136C109.163 9.1553 108.598 9.72348 108.182 10.4659C107.773 11.2008 107.568 12.0758 107.568 13.0909ZM130.952 6.54545V8.30682H122.622V6.54545H130.952ZM125.224 2.36364H127.259V19.4432C127.259 20.1705 127.384 20.7424 127.634 21.1591C127.884 21.5682 128.209 21.8598 128.611 22.0341C129.012 22.2008 129.44 22.2841 129.895 22.2841C130.16 22.2841 130.387 22.2689 130.577 22.2386C130.766 22.2008 130.933 22.1629 131.077 22.125L131.509 23.9545C131.312 24.0303 131.069 24.0985 130.781 24.1591C130.493 24.2273 130.137 24.2614 129.713 24.2614C128.971 24.2614 128.255 24.0985 127.565 23.7727C126.884 23.447 126.323 22.9621 125.884 22.3182C125.444 21.6742 125.224 20.875 125.224 19.9205V2.36364ZM142.142 24.3636C140.634 24.3636 139.301 23.9811 138.142 23.2159C136.991 22.4508 136.089 21.3939 135.438 20.0455C134.786 18.6894 134.46 17.125 134.46 15.3523C134.46 13.5644 134.786 11.9924 135.438 10.6364C136.089 9.27273 136.991 8.21212 138.142 7.45454C139.301 6.68939 140.634 6.30682 142.142 6.30682C143.65 6.30682 144.979 6.68939 146.131 7.45454C147.282 8.2197 148.184 9.2803 148.835 10.6364C149.494 11.9924 149.824 13.5644 149.824 15.3523C149.824 17.125 149.498 18.6894 148.847 20.0455C148.195 21.3939 147.29 22.4508 146.131 23.2159C144.979 23.9811 143.65 24.3636 142.142 24.3636ZM142.142 22.5114C143.354 22.5114 144.381 22.1856 145.222 21.5341C146.063 20.8826 146.699 20.0152 147.131 18.9318C147.57 17.8485 147.79 16.6553 147.79 15.3523C147.79 14.0492 147.57 12.8523 147.131 11.7614C146.699 10.6705 146.063 9.79545 145.222 9.13636C144.381 8.47727 143.354 8.14773 142.142 8.14773C140.938 8.14773 139.911 8.47727 139.062 9.13636C138.222 9.79545 137.581 10.6705 137.142 11.7614C136.71 12.8523 136.494 14.0492 136.494 15.3523C136.494 16.6553 136.71 17.8485 137.142 18.9318C137.581 20.0152 138.222 20.8826 139.062 21.5341C139.903 22.1856 140.93 22.5114 142.142 22.5114ZM165.991 10.375L164.139 10.8977C163.957 10.375 163.7 9.90151 163.366 9.47727C163.033 9.05303 162.598 8.71591 162.06 8.46591C161.529 8.21591 160.87 8.09091 160.082 8.09091C158.901 8.09091 157.931 8.37121 157.173 8.93182C156.416 9.49242 156.037 10.2159 156.037 11.1023C156.037 11.8523 156.295 12.4621 156.81 12.9318C157.332 13.3939 158.135 13.7614 159.219 14.0341L161.855 14.6818C163.317 15.0379 164.412 15.6023 165.139 16.375C165.874 17.1477 166.241 18.1174 166.241 19.2841C166.241 20.2689 165.969 21.1439 165.423 21.9091C164.878 22.6742 164.116 23.2765 163.139 23.7159C162.17 24.1477 161.045 24.3636 159.764 24.3636C158.06 24.3636 156.654 23.9811 155.548 23.2159C154.442 22.4432 153.734 21.3295 153.423 19.875L155.366 19.3977C155.616 20.4356 156.105 21.2197 156.832 21.75C157.567 22.2803 158.533 22.5455 159.73 22.5455C161.071 22.5455 162.143 22.2462 162.946 21.6477C163.749 21.0417 164.151 20.2841 164.151 19.375C164.151 18.6705 163.916 18.0795 163.446 17.6023C162.976 17.1174 162.264 16.7614 161.31 16.5341L158.457 15.8523C156.942 15.4886 155.821 14.9129 155.094 14.125C154.366 13.3371 154.003 12.3598 154.003 11.1932C154.003 10.2311 154.264 9.38636 154.787 8.65909C155.31 7.92424 156.029 7.34848 156.946 6.93182C157.863 6.51515 158.908 6.30682 160.082 6.30682C161.681 6.30682 162.957 6.67045 163.912 7.39773C164.874 8.11742 165.567 9.10985 165.991 10.375Z" fill="white"/>
</svg>
